<mxfile host="app.diagrams.net" modified="2024-05-12T23:34:47.887Z" agent="Mozilla/5.0 (Windows NT 10.0; Win64; x64) AppleWebKit/537.36 (KHTML, like Gecko) Chrome/124.0.0.0 Safari/537.36 Edg/124.0.0.0" version="24.4.0" etag="Db6fW5Vv-2WxV_WIeToo" type="github">
  <diagram name="PÃ¡gina-1" id="0CUdK-C-PZdo5PINtAoP">
    <mxGraphModel>
      <root>
        <mxCell id="0" />
        <mxCell id="1" parent="0" />
      </root>
    </mxGraphModel>
  </diagram>
</mxfile>
